<?xml version="1.0" encoding="UTF-8"?>
<!-- Svg Vector Icons : http://www.onlinewebfonts.com/icon -->
<!DOCTYPE svg PUBLIC "-//W3C//DTD SVG 1.1//EN" "http://www.w3.org/Graphics/SVG/1.1/DTD/svg11.dtd">
<svg version="1.1" xmlns="http://www.w3.org/2000/svg" xmlns:xlink="http://www.w3.org/1999/xlink" x="0px" y="0px" viewBox="0 0 256 256" enable-background="new 0 0 256 256" xml:space="preserve">
<metadata> Svg Vector Icons : http://www.onlinewebfonts.com/icon </metadata>
<g><g><path fill="#000000" d="M60.2,118.2c0-1.2,0-2.4,0-3.6c0-3,0-5.3,0.6-8.9l0.6-3H33.5c-5.3,0-9.5,4.2-9.5,9.5s4.2,9.5,9.5,9.5h26.8L60.2,118.2L60.2,118.2z"/><path fill="#000000" d="M73.9,72.4l1.8-2.4c3-3.6,5.9-6.6,8.9-8.9l2.4-1.8l-19-19.6c-3.6-3.6-10.1-3.6-13.7,0c-1.8,1.8-3,4.2-3,7.1c0,2.4,1.2,4.7,3,6.6L73.9,72.4z"/><path fill="#000000" d="M180.3,69.5l1.8,2.4l19.6-19c1.8-1.8,3-4.2,3-6.6c0-2.4-1.2-4.7-3-6.6c-3.6-3.6-10.1-3.6-13.7,0l-19,18.4l2.4,1.8C174.4,62.9,177.3,66.5,180.3,69.5z"/><path fill="#000000" d="M134.5,44.5l3,0.6V19.5c0-5.3-4.2-9.5-9.5-9.5c-5.3,0-9.5,4.2-9.5,9.5v25.6l3-0.6C125.6,44.5,129.8,44.5,134.5,44.5z"/><path fill="#000000" d="M72.1,158.1l-1.8-3l-16,15.5c-3.6,3.6-3.6,9.5,0,13.7c1.8,1.8,4.2,3,7.1,3c2.4,0,4.7-1.2,7.1-3L82.8,170l-2.4-1.8C78.6,165.8,75.1,162.2,72.1,158.1z"/><path fill="#000000" d="M185.7,155.1l-1.8,3c-3,4.2-6,7.7-8.3,10.1l-1.8,1.8l14.3,14.3c1.8,1.8,4.2,3,7.1,3c2.4,0,4.7-1.2,7.1-3c3.6-3.6,3.6-9.5,0-13.7L185.7,155.1z"/><path fill="#000000" d="M222.5,102.8h-27.4l0.6,3c0.6,3.6,0.6,6.6,0.6,8.9c0,1.2,0,2.4,0,3.6v3h26.2c5.3,0,9.5-4.2,9.5-9.5C232.1,106.9,227.9,102.8,222.5,102.8z"/><path fill="#000000" d="M192.8,114.7c0-13.7-4.7-27.4-13.1-38.1c-6.6-8.9-16-15.5-26.2-20.2v-0.6l-7.1-1.8c-3.6-1.2-7.7-1.8-11.3-2.4H134c-3.6-0.6-8.3-0.6-12.5,0h-0.6c-4.2,0.6-7.7,1.2-11.3,2.4l-4.7,1.2l-2.4,1.2l0,0c-10.1,4.2-19.6,11.3-26.2,20.2C68,87.9,63.2,101,63.2,114.6c0,9.5,1.8,17.8,4.7,25.6c4.2,10.1,10.1,17.2,16,22.6l1.2,1.2c1.8,1.8,3.6,3.6,4.7,5.3c1.2,1.8,1.8,3,1.8,3c1.2,6,1.2,13.1,1.2,14.3c0,8.3,6,14.9,13.7,17.2c-3,1.8-4.7,4.7-4.7,7.7c0,3.6,1.8,6.6,4.7,7.7c-3,1.8-4.7,4.7-4.7,7.7c0,4.7,4.2,8.9,8.9,8.9v1.2c0,5.3,7.1,8.9,13.7,8.9h8.3c6.6,0,13.7-3.6,13.7-9.5V236c4.7,0,8.9-4.2,8.9-8.9c0-3.6-1.8-6.6-4.7-7.7c3-1.8,4.7-4.7,4.7-7.7c0-3.6-1.8-6.6-4.7-7.7c7.7-1.8,13.7-8.9,13.7-17.2c0-3,0-8.9,1.2-13.7c0-0.6,0.6-1.2,0.6-1.8c1.2-1.8,3.6-4.2,5.9-6.6c4.2-4.2,9.5-10.1,13.7-17.8C189.8,137.3,192.8,126.5,192.8,114.7z M148.2,170c-1.2,5.9-1.2,12.5-1.2,17.2c0,0.6-0.6,1.8-1.8,1.8h-34.5c-0.6,0-0.6,0-1.2-0.6c-0.6-0.6-0.6-0.6-0.6-1.8c0-6.6-0.6-11.9-1.2-16.6c-0.6-2.4-1.2-4.7-3-7.1c-1.8-3-4.7-6-7.1-8.3l-0.6-0.6c-3.6-3.6-8.3-8.3-11.3-14.3c-3.6-7.1-5.3-14.9-5.3-24.4c0-10.7,3.6-20.2,9.5-28.5c6-7.7,14.9-14.3,25-16.6l1.2-0.6c3-0.6,5.3-1.2,7.7-1.2l0,0h0.6c1.8,0,3,0,4.2,0h0.6c1.2,0,3,0,4.2,0v-3v3v-2.4v2.4c2.4,0,4.7,0.6,7.1,1.2l1.2,0.6c9.5,3,18.4,8.9,25,16.6c6.5,8.3,9.5,18.5,9.5,28.5c0,7.7-1.2,13.7-3.6,19.6c-3,7.7-7.7,13.1-12.5,17.8l-1.2,1.2c-1.8,1.8-3.6,4.2-5.3,6C151.8,162.2,149.4,165.2,148.2,170z"/></g></g>
</svg>